<?xml version="1.0" encoding="utf-8"?>
<!-- Svg Vector Icons : http://www.onlinewebfonts.com/icon -->
<!DOCTYPE svg PUBLIC "-//W3C//DTD SVG 1.1//EN" "http://www.w3.org/Graphics/SVG/1.1/DTD/svg11.dtd">
<svg version="1.1" xmlns="http://www.w3.org/2000/svg" xmlns:xlink="http://www.w3.org/1999/xlink" x="0px" y="0px" viewBox="0 0 1000 1000" enable-background="new 0 0 1000 1000" xml:space="preserve">
<metadata> Svg Vector Icons : http://www.onlinewebfonts.com/icon </metadata>
<g><g><path d="M290,675c0-19.3-6.8-35.8-20.5-49.5C255.8,611.8,239.3,605,220,605c-19.3,0-35.8,6.8-49.5,20.5C156.8,639.2,150,655.7,150,675c0,19.3,6.8,35.8,20.5,49.5c13.7,13.7,30.2,20.5,49.5,20.5c19.3,0,35.8-6.8,49.5-20.5C283.2,710.8,290,694.3,290,675z M850,675c0-19.3-6.8-35.8-20.5-49.5C815.8,611.8,799.3,605,780,605c-19.3,0-35.8,6.8-49.5,20.5C716.8,639.2,710,655.7,710,675c0,19.3,6.8,35.8,20.5,49.5c13.7,13.7,30.2,20.5,49.5,20.5c19.3,0,35.8-6.8,49.5-20.5C843.2,710.8,850,694.3,850,675z M824.8,458.4l-39.4-210c-1.8-8.4-5.9-15.2-12.3-20.5c-6.4-5.3-13.8-7.9-22.1-7.9H249c-8.4,0-15.8,2.6-22.1,7.9c-6.4,5.3-10.5,12.1-12.3,20.5l-39.4,210c-1.8,10.9,0.7,20.6,7.7,29c6.9,8.4,15.9,12.6,26.8,12.6h580.8c10.9,0,19.9-4.2,26.8-12.6C824.1,479,826.7,469.4,824.8,458.4L824.8,458.4z M701.3,123.8c0-7.3-2.6-13.5-7.7-18.6c-5.1-5.1-11.3-7.7-18.6-7.7H325c-7.3,0-13.5,2.6-18.6,7.7c-5.1,5.1-7.7,11.3-7.7,18.6s2.6,13.5,7.7,18.6c5.1,5.1,11.3,7.7,18.6,7.7h350c7.3,0,13.5-2.6,18.6-7.7C698.7,137.2,701.3,131,701.3,123.8z M920,520.2V850h-70v70c0,19.3-6.8,35.8-20.5,49.5C815.8,983.2,799.3,990,780,990c-19.3,0-35.8-6.8-49.5-20.5C716.8,955.8,710,939.3,710,920v-70H290v70c0,19.3-6.8,35.8-20.5,49.5C255.8,983.2,239.3,990,220,990c-19.3,0-35.8-6.8-49.5-20.5S150,939.3,150,920v-70H80V520.2c0-40.8,4.6-81.5,13.7-122L150,150c3.3-28.4,21.1-53.4,53.3-74.9c32.3-21.5,74.2-37.7,125.8-48.7S437.7,10,500,10c62.3,0,119.3,5.5,170.9,16.4c51.6,10.9,93.5,27.2,125.8,48.7c32.3,21.5,50,46.5,53.3,74.9l57.4,248.3C915.8,435.5,920,476.1,920,520.2L920,520.2z"/></g></g>
</svg>
