<?xml version="1.0" encoding="utf-8"?>
<!-- Svg Vector Icons : http://www.onlinewebfonts.com/icon -->
<!DOCTYPE svg PUBLIC "-//W3C//DTD SVG 1.1//EN" "http://www.w3.org/Graphics/SVG/1.1/DTD/svg11.dtd">
<svg version="1.1" xmlns="http://www.w3.org/2000/svg" xmlns:xlink="http://www.w3.org/1999/xlink" x="0px" y="0px" viewBox="0 0 1000 1000" enable-background="new 0 0 1000 1000" xml:space="preserve">
<metadata> Svg Vector Icons : http://www.onlinewebfonts.com/icon </metadata>
<g><g><path d="M723.3,700V311.3c0-45-36.5-81.4-81.5-81.4H511.1l83.4-213.1h102.7v46.4h6.8V10H295.9v53.2h6.8V16.8h102.7l83.4,213.1H358.2c-45,0-81.5,36.5-81.5,81.4V700c0,44.1,35,79.9,78.7,81.3L276.7,990h61.1l78.6-208.5h167.1L662.1,990h61.1l-78.7-208.7C688.3,779.9,723.3,744.1,723.3,700z M413.4,16.8h173.2l-82.7,213.1h-1.3h-5.1h-1.3L413.4,16.8z M573.9,257.9l0,41.5H426.1l0-41.5H573.9z M388.7,702.6c-18.8,0-34-15.2-34-34s15.2-34,34-34c18.7,0,33.9,15.2,33.9,34S407.5,702.6,388.7,702.6z M611.3,702.6c-18.8,0-33.9-15.2-33.9-34s15.2-34,33.9-34c18.7,0,34,15.2,34,34S630,702.6,611.3,702.6z M667.9,456.7c0,45-36.5,81.5-81.5,81.5H413.6c-45,0-81.5-36.5-81.5-81.5v-40.7c0-45,36.5-81.5,81.5-81.5h172.8c45,0,81.5,36.5,81.5,81.5V456.7z"/></g><g></g><g></g><g></g><g></g><g></g><g></g><g></g><g></g><g></g><g></g><g></g><g></g><g></g><g></g><g></g></g>
</svg>
